<svg width="800" height="800" viewBox="0 0 800 800" fill="none" xmlns="http://www.w3.org/2000/svg">
<path d="M603.473 447.301L604.743 468.066C601.341 469.767 592.659 470.605 588.191 470.605C565.801 470.605 549.935 456.567 549.3 431.917H572.883C573.247 436.572 575.398 440.905 578.886 444.01C582.374 447.114 586.927 448.748 591.593 448.57C595.582 448.483 599.556 448.058 603.473 447.301ZM282.952 469.133H306.459V337.812H282.952V469.133ZM490.405 386.095C501.625 386.095 510.942 391.604 515.181 399.855L535.084 388.634C527.468 373.402 510.536 363.426 490.405 363.426C483.27 363.277 476.179 364.573 469.557 367.235C462.936 369.897 456.921 373.871 451.875 378.917C446.829 383.963 442.855 389.978 440.193 396.599C437.531 403.221 436.235 410.312 436.384 417.447C436.384 448.164 459.916 471.24 490.608 471.24C509.622 471.24 525.996 462.558 535.008 448.798L515.308 436.715C512.477 440.563 508.744 443.656 504.437 445.723C500.13 447.79 495.381 448.768 490.608 448.57C486.521 448.619 482.467 447.845 478.686 446.294C474.905 444.743 471.475 442.447 468.599 439.544C465.724 436.64 463.462 433.187 461.948 429.391C460.435 425.595 459.701 421.533 459.789 417.447C459.789 399.677 472.711 386.095 490.506 386.095M269.548 412.801C269.603 406.268 268.35 399.789 265.863 393.747C263.375 387.705 259.704 382.222 255.065 377.62C250.426 373.019 244.913 369.393 238.85 366.955C232.788 364.517 226.299 363.317 219.766 363.426C212.745 363.351 205.779 364.679 199.277 367.332C192.775 369.984 186.869 373.908 181.904 378.874C176.938 383.839 173.014 389.745 170.362 396.247C167.709 402.749 166.381 409.715 166.456 416.736C166.327 423.862 167.624 430.943 170.271 437.561C172.917 444.179 176.859 450.201 181.866 455.274C186.872 460.347 192.843 464.368 199.425 467.101C206.008 469.834 213.07 471.224 220.198 471.189C241.598 471.189 258.962 462.71 266.578 448.748L247.741 436.664C242.867 444.711 232.281 449.789 220.629 449.789C203.9 449.789 192.451 439.634 189.912 422.905H268.609C269.185 419.551 269.465 416.153 269.446 412.751M190.699 404.957C194.304 391.401 204.255 382.922 218.446 382.922C232.637 382.922 243.451 392.036 244.72 404.957H190.699ZM423.005 412.801C423.06 406.268 421.807 399.789 419.32 393.747C416.833 387.705 413.161 382.222 408.522 377.62C403.883 373.019 398.37 369.393 392.308 366.955C386.246 364.517 379.757 363.317 373.224 363.426C366.202 363.351 359.236 364.679 352.735 367.332C346.233 369.984 340.326 373.908 335.361 378.874C330.396 383.839 326.472 389.745 323.819 396.247C321.167 402.749 319.839 409.715 319.913 416.736C319.781 423.863 321.076 430.945 323.721 437.565C326.366 444.184 330.308 450.208 335.316 455.282C340.323 460.355 346.294 464.376 352.879 467.108C359.463 469.84 366.527 471.227 373.655 471.189C395.056 471.189 412.419 462.71 420.035 448.748L401.174 436.664C396.325 444.711 385.714 449.789 374.087 449.789C357.332 449.789 345.909 439.634 343.37 422.905H422.066C422.65 419.552 422.939 416.154 422.929 412.751M344.233 404.932C347.838 391.376 357.789 382.897 371.98 382.897C386.17 382.897 396.985 392.01 398.254 404.932H344.233ZM716.948 412.801C717 406.27 715.744 399.794 713.255 393.755C710.767 387.716 707.095 382.235 702.456 377.637C697.817 373.038 692.305 369.414 686.245 366.978C680.184 364.542 673.697 363.343 667.167 363.451C660.146 363.38 653.182 364.71 646.682 367.364C640.181 370.018 634.276 373.942 629.312 378.907C624.347 383.871 620.423 389.776 617.769 396.277C615.115 402.777 613.785 409.741 613.856 416.762C613.731 423.886 615.03 430.963 617.678 437.578C620.326 444.193 624.269 450.213 629.275 455.283C634.282 460.353 640.251 464.372 646.832 467.103C653.412 469.835 660.473 471.224 667.598 471.189C688.973 471.189 706.362 462.71 713.978 448.748L695.116 436.664C690.242 444.711 679.656 449.789 668.004 449.789C651.275 449.789 639.851 439.634 637.313 422.905H716.009C716.593 419.552 716.882 416.154 716.872 412.751M638.176 404.932C641.781 391.376 651.732 382.897 665.923 382.897C680.113 382.897 690.902 392.01 692.197 404.932H638.176ZM730.352 469.107H753.859V337.812H730.352V469.107ZM124.087 444.813C117.967 448.493 110.917 450.335 103.778 450.119C95.878 450.299 88.1281 447.941 81.6671 443.391C75.3982 438.807 71.0198 432.09 69.355 424.504L46 428.033C47.2302 436.365 50.5974 444.236 55.7736 450.88C60.9842 457.463 67.7795 462.616 75.5238 465.858C84.0718 469.48 93.2765 471.295 102.56 471.189C111.648 471.283 120.669 469.637 129.139 466.34C136.846 463.404 143.58 458.375 148.584 451.819C152.901 446.045 155.402 439.117 155.768 431.917H132.439C132.199 434.583 131.313 437.151 129.858 439.398C128.403 441.645 126.422 443.504 124.087 444.813Z" fill="#00223A"/>
<path d="M572.731 422.956H549.224V388V337.812H572.731V365.558H603.676V388H572.731V422.956ZM150.082 408.562C146.596 403.862 142.012 400.087 136.729 397.57C131.147 395.032 125.365 392.96 119.441 391.376L94.9692 384.369C89.8051 383.221 84.8651 381.232 80.347 378.48C78.5726 377.35 77.1285 375.771 76.161 373.903C75.1936 372.035 74.7373 369.944 74.8382 367.843C74.826 364.372 76.1117 361.022 78.443 358.45C81.0655 355.595 84.366 353.447 88.0389 352.206C92.1431 350.718 96.4962 350.037 100.859 350.2C107.821 350.207 114.599 352.44 120.203 356.572C125.701 360.58 129.496 366.504 130.839 373.174L154.931 369.189C153.195 361.281 149.66 353.879 144.599 347.56C139.687 341.574 133.362 336.907 126.194 333.978C118.271 330.741 109.798 329.06 101.24 329.028C92.5118 328.77 83.8228 330.29 75.7013 333.496C68.6143 336.292 62.4565 341.025 57.9313 347.154C53.4333 353.491 51.1088 361.115 51.3055 368.884C51.3055 379.394 54.2165 387.213 60.0383 392.341C66.3012 397.701 73.7086 401.557 81.6924 403.612L117.08 414.071C121.431 415.206 125.439 417.385 128.758 420.417C129.472 421.195 130.102 422.046 130.636 422.956H155.54C155.055 417.753 153.168 412.779 150.082 408.562Z" fill="#E83A50"/>
</svg>
